<svg width="41" height="35" viewBox="0 0 41 35" fill="none" xmlns="http://www.w3.org/2000/svg">
<path d="M30.7311 20.6208C30.7311 20.3746 30.7815 20.1284 30.8825 19.9068C30.9834 19.6729 31.1222 19.4759 31.2988 19.3035C31.4754 19.1312 31.6898 18.9958 31.9169 18.8973C32.1566 18.7988 32.3963 18.7496 32.6486 18.7496C32.9009 18.7496 33.1532 18.7988 33.3803 18.8973C33.62 18.9958 33.8218 19.1312 33.9985 19.3035C34.1751 19.4759 34.3138 19.6852 34.4148 19.9068C34.5157 20.1407 34.5662 20.3746 34.5662 20.6208C34.5662 20.867 34.5157 21.1133 34.4148 21.3349C34.3138 21.5688 34.1751 21.7657 33.9985 21.9381C33.8218 22.1104 33.6074 22.2459 33.3803 22.3444C33.1406 22.4428 32.9009 22.4921 32.6486 22.4921C32.3963 22.4921 32.144 22.4428 31.9169 22.3444C31.6772 22.2459 31.4754 22.1104 31.2988 21.9381C31.1222 21.7657 30.9834 21.5565 30.8825 21.3349C30.7815 21.101 30.7311 20.867 30.7311 20.6208ZM8.32615 18.7496C8.57846 18.7496 8.83077 18.7988 9.05785 18.8973C9.29754 18.9958 9.49938 19.1312 9.676 19.3035C9.85262 19.4759 9.99138 19.6852 10.0923 19.9068C10.1932 20.1407 10.2437 20.3746 10.2437 20.6208C10.2437 20.867 10.1932 21.1133 10.0923 21.3349C9.99138 21.5688 9.85262 21.7657 9.676 21.9381C9.49938 22.1104 9.28492 22.2459 9.05785 22.3444C8.81815 22.4428 8.57846 22.4921 8.32615 22.4921C8.07385 22.4921 7.82154 22.4428 7.59446 22.3444C7.35477 22.2459 7.15292 22.1104 6.97631 21.9381C6.79969 21.7657 6.66092 21.5565 6.56 21.3349C6.45908 21.101 6.40862 20.867 6.40862 20.6208C6.40862 20.3746 6.45908 20.1284 6.56 19.9068C6.66092 19.6729 6.79969 19.4759 6.97631 19.3035C7.15292 19.1312 7.36738 18.9958 7.59446 18.8973C7.83415 18.7988 8.07385 18.7496 8.32615 18.7496ZM3.87292 13.4928L3.91077 13.3943L6.66092 4.45656C7.48092 1.8097 9.96616 0 12.792 0H28.2206C31.0465 0 33.5443 1.8097 34.3517 4.45656L37.1018 13.3943L37.1397 13.4928C39.4483 14.7854 41 17.2107 41 19.993V33.7443C41 34.4337 40.4197 35 39.7132 35C39.0068 35 38.4265 34.4337 38.4265 33.7443V29.9895H2.56092V33.7443C2.56092 34.4337 1.98062 35 1.28677 35C0.592923 35 0 34.4337 0 33.7443V19.993C0 17.2107 1.55169 14.7731 3.86031 13.4928H3.87292ZM5.95446 15.3025C3.97385 16.0042 2.57354 17.8386 2.57354 20.0053V27.5026H38.4265V20.0053C38.4265 17.8386 37.0135 16.0042 35.0455 15.3025H35.0077V15.2902C34.4778 15.1055 33.8975 15.007 33.3046 15.007H7.68277C7.08985 15.007 6.52215 15.1055 5.99231 15.2902V15.3148H5.94185L5.95446 15.3025ZM9.09569 5.1829L6.82492 12.5572C7.10246 12.5202 7.39262 12.5079 7.68277 12.5079H33.292C33.5822 12.5079 33.8723 12.5202 34.1498 12.5572L31.8791 5.1829C31.3871 3.59478 29.8985 2.51142 28.1954 2.51142H12.7668C11.0637 2.51142 9.57508 3.59478 9.08308 5.1829H9.09569Z" fill="#FEFAE0"/>
</svg>
