<svg width="41" height="36" viewBox="0 0 41 36" fill="none" xmlns="http://www.w3.org/2000/svg">
<path d="M32.1329 36C32.667 36 33.1757 35.9003 33.6716 35.7009C34.1675 35.5016 34.5998 35.215 34.9686 34.8536C35.3501 34.4797 35.6298 34.0561 35.8332 33.5826C36.0367 33.0966 36.1385 32.5981 36.1385 32.0748C36.1385 31.5514 36.0367 31.053 35.8332 30.567C35.6298 30.081 35.3373 29.6573 34.9686 29.2959C34.5871 28.9221 34.1548 28.648 33.6716 28.4486C33.1757 28.2492 32.667 28.1495 32.1329 28.1495C31.5989 28.1495 31.0902 28.2492 30.5943 28.4486C30.0984 28.648 29.6661 28.9346 29.2973 29.2959C28.9158 29.6698 28.6361 30.0935 28.4326 30.567C28.2292 31.053 28.1274 31.5514 28.1274 32.0748C28.1274 32.5981 28.2292 33.0966 28.4326 33.5826C28.6361 34.0685 28.9286 34.4922 29.2973 34.8536C29.6788 35.2274 30.1111 35.5016 30.5943 35.7009C31.0902 35.9003 31.5989 36 32.1329 36ZM32.1329 30.3676C32.3618 30.3676 32.578 30.405 32.7942 30.4922C33.0103 30.5794 33.1884 30.7041 33.3537 30.8536C33.519 31.0156 33.6334 31.19 33.7224 31.4019C33.8114 31.6012 33.8496 31.8255 33.8496 32.0498C33.8496 32.2741 33.8114 32.486 33.7224 32.6978C33.6334 32.9097 33.5063 33.0841 33.3537 33.2461C33.2011 33.4081 33.0103 33.5202 32.7942 33.6075C32.578 33.6947 32.3618 33.7321 32.1329 33.7321C31.904 33.7321 31.6879 33.6947 31.4717 33.6075C31.2556 33.5202 31.0775 33.3956 30.9122 33.2461C30.7469 33.0841 30.6197 32.9097 30.5434 32.6978C30.4544 32.486 30.4163 32.2741 30.4163 32.0498C30.4163 31.8255 30.4544 31.6137 30.5434 31.4019C30.6325 31.19 30.7596 31.0156 30.9122 30.8536C31.0775 30.6916 31.2556 30.5794 31.4717 30.4922C31.6752 30.405 31.904 30.3676 32.1329 30.3676ZM17.7895 32.0623C17.7895 31.5389 17.6877 31.0405 17.4843 30.5545C17.2808 30.0685 16.9884 29.6449 16.6196 29.2835C16.2509 28.9221 15.8058 28.6355 15.3226 28.4361C14.8267 28.2368 14.318 28.1371 13.784 28.1371C13.2499 28.1371 12.7413 28.2368 12.2454 28.4361C11.7494 28.6355 11.3171 28.9221 10.9483 29.2835C10.5668 29.6573 10.2871 30.081 10.071 30.5545C9.86751 31.0405 9.76576 31.5389 9.76576 32.0623C9.76576 32.5857 9.86751 33.0841 10.071 33.5701C10.2744 34.0561 10.5668 34.4798 10.9483 34.8411C11.3298 35.215 11.7622 35.4891 12.2454 35.6885C12.7413 35.8878 13.2499 35.9875 13.784 35.9875C14.318 35.9875 14.8267 35.8878 15.3226 35.6885C15.8185 35.4891 16.2509 35.2025 16.6196 34.8411C17.0011 34.4673 17.2808 34.0436 17.4843 33.5701C17.6877 33.0841 17.7895 32.5857 17.7895 32.0623ZM12.0546 32.0623C12.0546 31.838 12.0928 31.6262 12.1818 31.4143C12.2708 31.2025 12.3979 31.028 12.5505 30.866C12.7158 30.7041 12.8939 30.5919 13.11 30.5047C13.3262 30.4174 13.5424 30.3801 13.7712 30.3801C14.0001 30.3801 14.2163 30.4174 14.4325 30.5047C14.6487 30.5919 14.8267 30.7165 14.992 30.866C15.1573 31.028 15.2844 31.2025 15.3607 31.4143C15.4497 31.6137 15.4879 31.838 15.4879 32.0623C15.4879 32.2866 15.4497 32.4984 15.3607 32.7103C15.2717 32.9221 15.1446 33.0966 14.992 33.2586C14.8394 33.4206 14.6487 33.5327 14.4325 33.6199C14.2163 33.7072 14.0001 33.7445 13.7712 33.7445C13.5424 33.7445 13.3262 33.7072 13.11 33.6199C12.8939 33.5327 12.7158 33.4081 12.5505 33.2586C12.3852 33.0966 12.2581 32.9221 12.1818 32.7103C12.0928 32.4984 12.0546 32.2866 12.0546 32.0623ZM7.61678 4.5109H38.6943L35.6934 16.2991C35.4391 17.2959 34.5235 17.9938 33.4681 17.9938H10.4397L7.61678 4.49844V4.5109ZM1.14442 0.0124611C0.508626 0.0124611 0 0.523364 0 1.13396C0 1.74455 0.521342 2.25545 1.14442 2.25545H3.86563C4.41241 2.25545 4.88288 2.62928 4.99732 3.15265L9.21899 23.3894C9.65133 25.4829 11.5333 26.9907 13.7204 26.9907H35.579C36.2147 26.9907 36.7234 26.4798 36.7234 25.8692C36.7234 25.2586 36.202 24.7477 35.579 24.7477H13.7204C12.6268 24.7477 11.6858 24 11.4697 22.9533L10.9102 20.2492H33.4681C35.5789 20.2492 37.41 18.8411 37.9187 16.8349L40.9323 5.04673C41.2884 3.62617 40.1948 2.24299 38.707 2.24299H7.12088C6.6504 0.909657 5.35336 0 3.87832 0H1.15715L1.14442 0.0124611Z" fill="#FEFAE0"/>
</svg>
