<svg width="51" height="40" viewBox="0 0 51 40" fill="none" xmlns="http://www.w3.org/2000/svg">
<path d="M10.3547 34.5347L6.91395 15.4506L12.3997 19.8697C15.1912 22.1284 19.3461 21.2118 20.9366 17.9711L25.2862 9.1656L29.6683 17.9711C31.2588 21.1791 35.4136 22.1284 38.2052 19.8697L43.6585 15.4506L40.2178 34.5019C39.9905 35.844 38.822 36.8261 37.4586 36.8261H13.1138C11.7505 36.8261 10.5819 35.844 10.3547 34.5019M27.1364 6.54685C28.1426 5.9249 28.7918 4.81194 28.7918 3.5353C28.7918 1.57124 27.2338 0 25.2862 0C23.3386 0 21.7805 1.57124 21.7805 3.5353C21.7805 4.81194 22.4622 5.9249 23.436 6.54685L18.4048 16.6945C17.5933 18.2985 15.5158 18.7567 14.12 17.6438L6.29721 11.3261C6.75165 10.7368 7.01133 10.0167 7.01133 9.19833C7.01133 7.23427 5.42074 5.66303 3.50562 5.66303C1.59049 5.66303 0 7.26701 0 9.19833C0 11.1297 1.55803 12.7336 3.50562 12.7336H3.5706L7.59558 34.9929C8.08248 37.6772 10.4196 39.6412 13.1138 39.6412H37.4586C40.1853 39.6412 42.4899 37.6772 43.0092 34.9929L47.0342 12.7336H47.0992C49.0468 12.7336 50.6048 11.1624 50.6048 9.19833C50.6048 7.23427 49.0468 5.66303 47.0992 5.66303C45.1516 5.66303 43.5935 7.26701 43.5935 9.19833C43.5935 9.98395 43.8532 10.7368 44.3076 11.3261L36.4848 17.6438C35.089 18.7567 33.0117 18.2985 32.2002 16.6945L27.1688 6.54685H27.1364Z" fill="white"/>
</svg>
