<svg width="44" height="30" viewBox="0 0 44 30" fill="none" xmlns="http://www.w3.org/2000/svg">
<path d="M2.95582 0.0344339L40.2944 0C41.7886 0.190399 42.9286 1.21531 43.3805 2.63115C43.5821 10.6826 43.4029 18.7746 43.4701 26.8402C43.2788 28.4869 41.9841 29.8461 40.2944 30H3.16957C1.42702 29.7671 0.173034 28.4545 0 26.7106V3.28945C0.201533 1.6346 1.31506 0.386875 2.95582 0.0344339ZM37.4872 1.86348H5.22969C5.79357 2.51165 6.41039 3.13146 7.03331 3.72493C10.6996 7.21896 14.5308 10.9783 18.307 14.3184C19.8663 15.6978 21.1895 16.4715 23.2272 15.2461L37.4872 1.86348ZM1.86673 3.16589V26.7733L14.262 16.2427C15.2921 15.0213 16.9593 15.9267 15.9476 17.3L3.23675 28.1365H39.354L26.4741 17.0974C25.9897 15.791 27.0177 15.2481 28.1332 16.0644C32.5018 19.2607 36.62 23.652 40.9051 27.0265L41.2227 27.5815L41.5362 27.0265L41.6014 3.40895C41.6807 2.80737 40.8705 1.84322 40.2843 1.91007C40.2313 1.91614 39.7082 2.33138 39.6003 2.42252C36.05 5.41219 32.5832 9.15131 29.1409 12.3395C25.7067 15.5236 22.3519 20.2066 17.4968 16.115L2.74207 2.17136C2.44283 2.04173 1.90948 2.93093 1.86876 3.16589H1.86673Z" fill="#FEFAE0"/>
</svg>
