<svg width="40" height="36" viewBox="0 0 40 36" fill="none" xmlns="http://www.w3.org/2000/svg">
<path d="M16.6737 33.7434V22.4977H23.3386V33.7434H16.6737ZM6.6703 30.3647V14.5184L20 2.61195L33.342 14.5184V30.3647C33.342 32.2223 31.8514 33.7434 30.0034 33.7434H25.5561V22.4977C25.5561 21.2509 24.5582 20.2535 23.3386 20.2535H16.6737C15.4418 20.2535 14.4562 21.2634 14.4562 22.4977V33.7434H10.0089C8.17328 33.7434 6.6703 32.2348 6.6703 30.3647ZM20.7392 0.280519C20.3203 -0.0935065 19.692 -0.0935065 19.2608 0.280519L0.375037 17.1491C-0.0807846 17.5605 -0.130063 18.2712 0.276481 18.7449C0.683024 19.2062 1.38524 19.2561 1.84106 18.8447L4.44047 16.5257V30.3771C4.44047 33.4816 6.92901 36 9.99657 36H30.0034C33.071 36 35.5595 33.4816 35.5595 30.3771V16.5257L38.1589 18.8447C38.6148 19.2561 39.317 19.2062 39.7235 18.7449C40.1301 18.2836 40.0808 17.573 39.625 17.1491L20.7392 0.280519Z" fill="#FEFAE0"/>
</svg>
