<svg width="41" height="41" viewBox="0 0 41 41" fill="none" xmlns="http://www.w3.org/2000/svg">
<path d="M29.4751 13.4395C29.7275 13.4395 29.98 13.389 30.2072 13.2881C30.447 13.1871 30.649 13.0483 30.8257 12.8716C31.0025 12.695 31.1413 12.4805 31.2423 12.2533C31.3433 12.0135 31.3938 11.7738 31.3938 11.5214C31.3938 11.269 31.3433 11.0166 31.2423 10.7895C31.1413 10.5497 31.0025 10.3478 30.8257 10.1711C30.649 9.99446 30.4344 9.85564 30.2072 9.75469C29.9673 9.65373 29.7275 9.60326 29.4751 9.60326C29.2226 9.60326 28.9701 9.65373 28.7429 9.75469C28.5031 9.85564 28.3011 9.99446 28.1244 10.1711C27.9476 10.3478 27.8088 10.5623 27.7078 10.7895C27.6068 11.0292 27.5563 11.269 27.5563 11.5214C27.5563 11.7738 27.6068 12.0262 27.7078 12.2533C27.8088 12.4931 27.9476 12.695 28.1244 12.8716C28.3011 13.0483 28.5157 13.1871 28.7429 13.2881C28.9827 13.389 29.2226 13.4395 29.4751 13.4395ZM26.9126 0C19.1241 0 12.8125 6.30963 12.8125 14.0957C12.8125 15.3072 12.964 16.4808 13.2543 17.6165L0.378679 30.4881C0.138839 30.7279 0 31.056 0 31.3967V39.7254C0 40.4321 0.580677 41 1.27495 41H11.5249C12.2318 41 12.7999 40.4195 12.7999 39.7254V35.8892H16.6499C17.3568 35.8892 17.9249 35.3087 17.9249 34.6147V30.7658H21.1311C21.472 30.7658 21.8002 30.627 22.04 30.3872L24.4384 27.9895C25.2337 28.1284 26.0542 28.2041 26.8999 28.2041C34.6884 28.2041 41 21.8944 41 14.1083C41 6.32226 34.6884 0.0126316 26.8999 0.0126316L26.9126 0ZM15.375 14.0831C15.375 7.723 20.5379 2.5491 26.9126 2.5491C33.2873 2.5491 38.4501 7.71038 38.4501 14.0831C38.4501 20.4558 33.2873 25.6171 26.9126 25.6171C26.0289 25.6171 25.1453 25.5162 24.3122 25.3269C23.883 25.2259 23.4286 25.3647 23.113 25.6676L20.601 28.1788H16.6499C15.943 28.1788 15.3624 28.7593 15.3624 29.4534V33.2896H11.5123C10.8054 33.2896 10.2374 33.8701 10.2374 34.5768V38.413H2.54986V31.9015L15.5896 18.8658C15.9304 18.5251 16.044 18.0203 15.9052 17.566C15.5517 16.4555 15.3624 15.2946 15.3624 14.0705L15.375 14.0831Z" fill="#FEFAE0"/>
</svg>
