<svg width="50" height="54" viewBox="0 0 50 54" fill="none" xmlns="http://www.w3.org/2000/svg">
<path d="M30.993 17.0256C30.993 13.1045 31.0004 9.18342 30.993 5.26236C30.9856 3.13004 29.6217 1.57655 27.4947 1.55041C21.8437 1.4832 16.1889 1.4832 10.5379 1.55041C8.41088 1.57655 7.04696 3.13004 7.03958 5.26236C7.02852 9.18342 7.03958 13.1045 7.03958 17.0256" stroke="#606C38" stroke-width="3" stroke-linecap="round" stroke-linejoin="round"/>
<path d="M36.5224 26.549C36.5224 24.4316 36.5224 22.3179 36.5224 20.2006C36.5224 18.0645 36.0763 17.594 33.942 17.5903C25.8322 17.579 17.7224 17.6537 9.61257 17.538C7.70308 17.5118 5.80096 17.5828 3.89884 17.594C2.04833 17.6052 1.50645 18.1765 1.50276 20.0138C1.49908 26.6124 1.49908 33.2073 1.50276 39.8059C1.50276 41.8262 1.90457 42.2295 3.89884 42.2332C9.9812 42.237 16.0635 42.2332 22.1459 42.2332" stroke="#606C38" stroke-width="3" stroke-linecap="round" stroke-linejoin="round"/>
<path d="M36.3381 51.7555C42.6493 51.7555 47.7655 46.5725 47.7655 40.179C47.7655 33.7855 42.6493 28.6025 36.3381 28.6025C30.0269 28.6025 24.9106 33.7855 24.9106 40.179C24.9106 46.5725 30.0269 51.7555 36.3381 51.7555Z" stroke="#606C38" stroke-width="3" stroke-linecap="round" stroke-linejoin="round"/>
<path d="M36.7067 33.8311V40.5865L32.2832 45.4075" stroke="#606C38" stroke-width="3" stroke-linecap="round" stroke-linejoin="round"/>
<path d="M19.0126 24.8682V34.9509" stroke="#606C38" stroke-width="3" stroke-linecap="round" stroke-linejoin="round"/>
</svg>
