<svg width="54" height="51" viewBox="0 0 54 51" fill="none" xmlns="http://www.w3.org/2000/svg">
<path d="M54 18.4427V51H0V18.4427L9.80649 18.388L22.2634 7.4344C22.41 7.21419 22.1316 6.76219 22.0746 6.45242C21.1823 1.52353 26.634 -1.9208 30.6207 1.1811C32.5308 2.66777 33.0444 5.26392 32.2218 7.48814L44.1935 18.388L54 18.4427ZM39.1289 18.4427C36.0376 15.6338 32.9537 12.7415 29.8139 10.0295C28.1559 10.9367 26.306 10.7881 24.6312 10.0095L14.9766 18.4417H39.1289V18.4427ZM50.625 21.9197H3.375V47.523H50.625V21.9197Z" fill="#606C38"/>
<path d="M12.1078 27.5355C14.6391 27.3332 16.8729 28.645 17.6618 31.0905C18.7882 34.5822 17.1366 38.841 13.1288 39.1971C5.36416 39.8872 5.11209 28.0929 12.1078 27.5355ZM12.1015 29.6365C8.9174 30.1412 8.8826 37.7484 13.1246 37.0846C16.0714 36.6231 16.0893 29.0043 12.1015 29.6365Z" fill="#606C38"/>
<path d="M22.1484 38.3565V42.3603H19.6171C19.5328 38.9412 19.7289 35.5011 19.6213 32.0831C19.614 31.8566 19.3366 30.7703 19.6699 30.7703H21.6738C21.9427 30.7703 21.7223 31.8271 21.9902 31.8218C22.0535 31.8208 22.6683 31.1528 22.9584 31C23.164 30.8915 23.588 30.725 23.8085 30.6902C29.5228 29.8052 29.4194 39.6261 23.9899 39.2025C23.2294 39.1435 22.7147 38.8295 22.1484 38.3565ZM23.4931 32.6911C23.0006 32.7691 22.4321 33.2263 22.3034 33.7173C22.2043 34.0987 22.1927 35.6834 22.2591 36.0859C22.3372 36.5569 22.8424 37.0447 23.3001 37.1522C26.1151 37.8117 26.1657 32.2696 23.4921 32.6921L23.4931 32.6911Z" fill="#606C38"/>
<path d="M46.3008 38.9888H43.7695V34.4055C43.7695 34.2042 43.5902 33.5394 43.4742 33.3308C42.8467 32.2044 41.1328 32.9662 41.1328 33.7733V38.9888H38.4961L38.5488 30.7704H40.7109C40.7637 30.7704 40.7331 31.6745 40.8175 31.8241C42.1221 30.2489 45.0025 30.133 45.9316 32.1402C45.9939 32.274 46.3008 33.1748 46.3008 33.2465V38.9888Z" fill="#606C38"/>
<path d="M31.6406 35.7223C32.0952 37.8538 34.7224 37.1953 36.2791 36.9888C36.2137 37.346 36.6419 38.3785 36.5839 38.6125C36.4521 39.1372 33.3134 39.2341 32.7776 39.1698C27.4018 38.5271 28.1939 29.9716 34.1075 30.6765C35.5693 30.8514 37.0195 32.5298 37.0195 33.9838V35.5643C37.0195 35.5759 36.8729 35.7223 36.8613 35.7223H31.6406ZM34.5937 33.9312C34.5969 31.7354 31.898 31.9366 31.6406 33.9312H34.5937Z" fill="#606C38"/>
</svg>
