<svg width="29" height="30" viewBox="0 0 29 30" fill="none" xmlns="http://www.w3.org/2000/svg">
<path d="M9.29484 15.5603C11.0394 17.5327 13.5508 20.2857 15.6149 21.819C15.7439 21.9152 16.1567 22.2177 16.2801 22.2525C16.3528 22.2735 16.5613 21.957 16.6107 21.8776C17.4638 20.5311 17.4693 19.1483 19.4717 19.3072C20.9749 19.4271 24.1994 21.3395 25.3721 22.3515C25.8535 22.7683 25.9221 23.0053 25.9687 23.6534C26.228 27.2219 23.4437 29.5929 20.1616 29.9568C15.0032 30.5269 8.69547 25.3889 5.48331 21.6699C2.08324 17.7348 -2.14935 11.1709 1.2562 6.02171C2.21354 4.57482 3.63858 3.64229 5.38456 3.53635C5.86323 3.50708 6.88092 3.5238 7.25398 3.84441C7.57355 4.11901 8.25521 5.21881 8.51306 5.62863C9.35793 6.97376 10.7363 9.36016 10.4867 10.9813C10.2837 12.3041 8.43351 12.5745 7.58589 13.3593C7.99187 14.2082 8.68039 14.8662 9.29347 15.5575L9.29484 15.5603ZM6.33367 5.15888C4.29555 4.75743 2.73061 6.08305 1.97489 7.90769C0.249485 12.0713 3.83608 17.3418 6.40773 20.3819C9.12751 23.5977 14.2653 27.9314 18.5322 28.3997C21.4303 28.719 24.7878 27.0365 24.4381 23.6534L24.3873 23.5545C23.0227 22.6317 21.3891 21.3674 19.7789 20.9548C19.5046 20.8851 19.0246 20.7318 18.8285 20.9701C18.2099 21.7256 17.9397 23.2562 16.9234 23.705C15.774 24.2138 14.3709 22.8213 13.5617 22.0978C12.0023 20.7039 10.3729 19.0354 8.94098 17.5021C8.1976 16.7061 6.34053 14.7435 6.10325 13.7566C5.69178 12.0476 7.87529 11.4887 8.94372 10.7722C9.05619 9.95258 8.64336 9.08695 8.29361 8.36629C7.92055 7.59685 7.45285 6.86225 6.99201 6.1625C6.77256 5.82935 6.57643 5.47808 6.33367 5.16027V5.15888Z" fill="#FEFAE0"/>
<path d="M23.5287 3.05297C26.7985 5.62476 28.8394 9.69362 28.9847 13.9061C29.0081 14.5682 29.1109 15.7 28.1673 15.6945C27.1428 15.6903 27.4376 14.38 27.4006 13.7067C27.0358 7.02008 21.518 1.7859 14.973 1.6242C14.519 1.61305 14.0061 1.78869 13.6152 1.49736C13.2243 1.20603 13.2298 0.461671 13.6454 0.177311C13.9896 -0.0554744 14.9771 0.000282466 15.416 0.0211913C18.3182 0.15919 21.241 1.25342 23.5287 3.05297Z" fill="#FEFAE0"/>
<path d="M23.3216 8.78885C24.29 10.3333 25.0841 12.8187 24.8811 14.6628C24.7796 15.5842 23.5068 15.6316 23.3203 14.8427C23.2201 14.4161 23.3066 13.6299 23.2435 13.1128C22.7387 9.00212 19.2193 5.89925 15.2185 5.59816C14.5931 5.55076 13.6673 5.82537 13.6111 4.87053C13.5645 4.0746 14.2283 4.01884 14.8331 4.00909C18.2373 3.95054 21.5222 5.91597 23.323 8.79024L23.3216 8.78885Z" fill="#FEFAE0"/>
<path d="M19.7583 15.2237C19.436 14.8962 19.5732 14.3832 19.5375 13.9664C19.3661 11.9341 17.845 10.1777 15.8865 9.74004C15.4256 9.63689 15.0155 9.66895 14.5807 9.61041C13.7331 9.49611 13.7441 8.144 14.5794 8.01019C15.8741 7.80388 17.7888 8.58169 18.7983 9.39296C20.2631 10.5694 21.3548 12.8387 21.1258 14.7637C21.0503 15.4022 20.2041 15.6768 19.757 15.2223L19.7583 15.2237Z" fill="#FEFAE0"/>
</svg>
