<svg width="51" height="46" viewBox="0 0 51 46" fill="none" xmlns="http://www.w3.org/2000/svg">
<path d="M34.8293 13.6829C36.1277 12.2426 37.9781 11.3261 40.0555 11.3261H40.315L39.4063 14.5013C39.244 15.0905 39.4711 15.7125 39.9905 16.0725C42.003 17.4146 43.5285 19.4114 44.3725 21.7356C44.5673 22.292 45.0867 22.6849 45.7035 22.6849H47.8132V31.1958H44.2752C43.8208 31.1958 43.3664 31.4249 43.1067 31.8177C41.7759 33.8472 39.7957 35.3858 37.491 36.2041C36.9392 36.4005 36.5498 36.9243 36.5498 37.5462V41.1143C36.5498 41.8999 35.9006 42.5218 35.154 42.5218H32.3623C31.5833 42.5218 30.9666 41.8671 30.9666 41.1143V38.2664C30.9666 37.4807 30.3499 36.8588 29.5708 36.8588H21.1314C20.3523 36.8588 19.7356 37.5135 19.7356 38.2664V41.1143C19.7356 41.8999 19.0864 42.5218 18.3399 42.5218H15.5159C14.7368 42.5218 14.1199 41.8671 14.1199 41.1143V36.1386C14.1199 35.6804 13.8927 35.2221 13.5032 34.9602C10.4844 32.9307 8.50445 29.4608 8.50445 25.5327C8.50445 19.2805 13.5358 14.2067 19.7356 14.2067H33.8231C34.2126 14.2067 34.6021 14.043 34.8618 13.7484M37.2313 25.5C37.8156 25.5 38.3025 25.3036 38.7245 24.878C39.1465 24.4525 39.3413 23.9615 39.3413 23.3723C39.3413 22.7831 39.1465 22.292 38.7245 21.8665C38.3025 21.441 37.8156 21.2445 37.2313 21.2445C36.647 21.2445 36.1603 21.441 35.7383 21.8665C35.3163 22.292 35.1215 22.7831 35.1215 23.3723C35.1215 23.9615 35.3163 24.4525 35.7383 24.878C36.1603 25.3036 36.647 25.5 37.2313 25.5ZM4.83648 16.8254C5.51814 16.4653 5.81031 15.6142 5.48572 14.9268C5.16112 14.2394 4.28465 13.9448 3.60299 14.3049L3.181 14.534C1.23341 15.516 0 17.5128 0 19.706C0 22.8813 2.49934 25.4345 5.61548 25.5C5.61548 30.1483 7.82289 34.2401 11.2312 36.8261V41.0815C11.2312 43.4384 13.1138 45.337 15.4509 45.337H18.2749C20.612 45.337 22.4946 43.4384 22.4946 41.0815V39.6739H28.1101V41.0815C28.1101 43.4384 29.9929 45.337 32.33 45.337H35.1215C37.4586 45.337 39.3413 43.4384 39.3413 41.0815V38.4955C41.581 37.5135 43.5285 35.9422 44.9568 34.0109H47.7807C49.3388 34.0109 50.6049 32.7343 50.6049 31.163V22.6521C50.6049 21.0809 49.3388 19.8042 47.7807 19.8042H46.6122C45.6709 17.611 44.2102 15.7452 42.36 14.3049L43.0092 12.0789C43.5286 10.2458 42.1652 8.44544 40.315 8.44544H40.0555C37.3613 8.44544 34.9591 9.52567 33.1738 11.2933H19.6706C12.8865 11.2933 7.2061 16.1707 5.90771 22.6194H5.74545C4.12246 22.6194 2.82399 21.2773 2.82399 19.6733C2.82399 18.5603 3.44072 17.5456 4.44698 17.0218L4.86897 16.8254H4.83648ZM23.8904 2.81515C26.9416 2.81515 29.5385 4.7792 30.5123 7.52888C30.772 8.28177 31.5834 8.64185 32.2975 8.41271C33.0117 8.15084 33.401 7.33248 33.1738 6.61232C31.8105 2.74968 28.1751 0 23.8904 0C19.0214 0 14.964 3.56804 14.1849 8.28177C14.0551 9.0674 14.5744 9.78755 15.3209 9.91849C16.0675 10.0494 16.8141 9.52567 16.9439 8.74005C17.5282 5.40116 20.4172 2.84788 23.8904 2.84788V2.81515Z" fill="white"/>
</svg>
