<svg width="51" height="52" viewBox="0 0 51 52" fill="none" xmlns="http://www.w3.org/2000/svg">
<path d="M33.9205 36.466C30.3175 39.5757 25.6757 41.4416 20.5471 41.4416C9.18613 41.4416 0 32.1778 0 20.7208C0 9.2638 9.18613 0 20.5471 0C31.908 0 41.0941 9.2638 41.0941 20.7208C41.0941 25.8601 39.2439 30.5738 36.1602 34.2073L50.1179 48.3158C50.7347 48.9377 50.7347 49.9525 50.1179 50.5745C49.5012 51.1964 48.495 51.1964 47.8782 50.5745L33.888 36.4987M37.9455 20.7208C37.9455 19.5751 37.8481 18.4294 37.6209 17.2837C37.3937 16.138 37.0691 15.0578 36.6471 14.0103C36.2251 12.93 35.6733 11.948 35.0241 10.966C34.4074 10.0167 33.6608 9.13286 32.8493 8.31451C32.0378 7.49615 31.1614 6.77599 30.2201 6.12131C29.2787 5.49936 28.2725 4.94288 27.2013 4.51733C26.1626 4.05905 25.059 3.73171 23.9553 3.5353C22.8192 3.30616 21.7156 3.20796 20.5471 3.20796C19.3785 3.20796 18.2749 3.30616 17.1712 3.5353C16.0351 3.76444 14.964 4.09178 13.9253 4.51733C12.8541 4.94288 11.8803 5.49936 10.9065 6.12131C9.96516 6.77599 9.08875 7.49615 8.27725 8.31451C7.46575 9.13286 6.75164 10.0167 6.10244 10.966C5.45325 11.9153 4.93389 12.93 4.47945 14.0103C4.05748 15.0578 3.70042 16.1707 3.50566 17.2837C3.27844 18.4294 3.18106 19.5424 3.18106 20.7208C3.18106 21.8992 3.27844 23.0122 3.50566 24.1252C3.73288 25.2709 4.05748 26.3511 4.47945 27.4313C4.90143 28.5116 5.45325 29.4936 6.10244 30.4756C6.71918 31.4249 7.46575 32.3087 8.27725 33.1271C9.08875 33.9454 9.96516 34.6656 10.9065 35.3203C11.8478 35.975 12.8541 36.4987 13.9253 36.957C14.964 37.3825 16.0676 37.7426 17.1712 37.939C18.3073 38.1682 19.411 38.2664 20.5471 38.2664C21.6832 38.2664 22.8192 38.1682 23.9553 37.939C25.059 37.7099 26.1626 37.3825 27.2013 36.957C28.24 36.4987 29.2463 35.975 30.2201 35.3203C31.1614 34.6656 32.0378 33.9454 32.8493 33.1271C33.6608 32.3087 34.3749 31.4249 35.0241 30.4756C35.6733 29.5263 36.1927 28.5116 36.6471 27.4313C37.0691 26.3838 37.4262 25.2709 37.6209 24.1252C37.8481 23.0122 37.9455 21.8665 37.9455 20.7208Z" fill="white"/>
</svg>
