<svg width="50" height="52" viewBox="0 0 50 52" fill="none" xmlns="http://www.w3.org/2000/svg">
<path d="M24.776 12.0234C25.1836 12.0349 25.5902 12.0586 25.9332 12.0986C26.2625 12.1371 26.5751 12.1953 26.7643 12.2959C27.3074 12.5849 27.464 13.1537 27.5299 13.6631C27.5632 13.9209 27.5768 14.1944 27.5944 14.4336C27.6079 14.6177 27.6238 14.7835 27.651 14.9287C28.8618 15.193 30.0139 15.6879 31.0641 16.3203C31.2191 16.2273 31.3665 16.114 31.5153 15.9863C31.6925 15.8342 31.8893 15.6489 32.0856 15.499C32.2878 15.3446 32.5159 15.2048 32.7848 15.1338C33.058 15.0617 33.3577 15.0644 33.6949 15.1699C33.8156 15.2077 33.9387 15.2869 34.0533 15.374C34.1724 15.4644 34.3016 15.5789 34.4352 15.707C34.7021 15.9631 35.0025 16.2879 35.2994 16.6152C35.599 16.9454 35.8951 17.2781 36.1608 17.5586C36.3633 17.7724 36.5374 17.9437 36.6735 18.0576L36.7965 18.1523L36.8395 18.1807L36.8668 18.2246C37.0681 18.5379 37.1344 18.8509 37.0973 19.1562C37.061 19.4544 36.9286 19.7269 36.7682 19.9697C36.6079 20.2123 36.4078 20.4418 36.2213 20.6514C36.0746 20.8162 35.9379 20.9669 35.8219 21.1113C36.4936 22.1853 36.949 23.3749 37.2819 24.5791C37.505 24.5935 37.7371 24.6 37.983 24.6104C38.2819 24.6229 38.595 24.6459 38.8815 24.7178C39.1701 24.7903 39.4489 24.9173 39.6656 25.1494C39.8844 25.3837 40.0182 25.7022 40.0582 26.1172C40.0962 26.5103 40.1228 27.2899 40.1256 28.0547C40.1277 28.6239 40.1165 29.2035 40.0846 29.6172L40.0455 29.9697C39.9858 30.3322 39.8159 30.6016 39.5748 30.7939C39.3403 30.981 39.0511 31.085 38.7623 31.1475C38.4726 31.2101 38.1644 31.2348 37.8815 31.251C37.6604 31.2636 37.4608 31.2731 37.2828 31.2871C36.9519 32.4919 36.4955 33.6797 35.8258 34.7539C35.9508 34.9065 36.0926 35.0655 36.2457 35.2363C36.4374 35.4502 36.6392 35.6836 36.7975 35.9307C36.956 36.1783 37.0815 36.4563 37.1031 36.7627C37.1252 37.0754 37.0374 37.3927 36.8141 37.7109C36.7464 37.8075 36.5464 38.0249 36.3033 38.2793C36.0523 38.5421 35.7358 38.8649 35.4176 39.1826C35.0995 39.5004 34.778 39.8149 34.5182 40.0615C34.3884 40.1847 34.2723 40.2922 34.1793 40.375C34.0927 40.4522 34.0102 40.5231 33.9537 40.5586L33.9528 40.5576C33.6259 40.7632 33.3101 40.8303 33.0045 40.7881C32.7069 40.7469 32.4433 40.6056 32.2106 40.4434C31.9804 40.2829 31.7555 40.083 31.5524 39.9121C31.3821 39.7689 31.2226 39.644 31.066 39.5498C30.0055 40.1625 28.8622 40.6552 27.6559 40.9434C27.6152 41.1504 27.5955 41.376 27.5787 41.6162C27.5587 41.9032 27.5416 42.2168 27.483 42.501C27.4239 42.7876 27.3177 43.0743 27.0992 43.2998C26.9044 43.5008 26.6403 43.6326 26.2975 43.6895L26.1451 43.71C25.7866 43.7444 24.9305 43.77 24.0973 43.7715C23.679 43.7722 23.2622 43.7671 22.9117 43.7529C22.569 43.7391 22.2679 43.7158 22.0953 43.6768C21.4025 43.5198 21.1647 42.8981 21.0612 42.3398C21.008 42.0535 20.9846 41.7508 20.9615 41.4834C20.9438 41.2772 20.9258 41.0961 20.9 40.9443C19.6822 40.6656 18.5571 40.1262 17.4928 39.5469C17.3343 39.6383 17.185 39.7534 17.0338 39.8818C16.8574 40.0317 16.6578 40.2172 16.4635 40.3662C16.262 40.5207 16.0348 40.6613 15.7672 40.7334C15.4952 40.8066 15.1976 40.8054 14.8619 40.7002C14.7435 40.6631 14.6218 40.5852 14.5094 40.5C14.3926 40.4115 14.2658 40.2993 14.1344 40.1738C13.8713 39.9225 13.5747 39.6033 13.2819 39.2812C12.9864 38.9563 12.6958 38.6293 12.4352 38.3516C12.1708 38.0698 11.9567 37.8597 11.8151 37.7588L11.7838 37.7363L11.7614 37.707C11.5252 37.3977 11.4329 37.0813 11.4557 36.7666C11.478 36.4601 11.6072 36.1789 11.7682 35.9297C11.9293 35.6804 12.1348 35.4441 12.3258 35.2295C12.4767 35.06 12.6163 34.9054 12.734 34.7588C12.0619 33.6841 11.6053 32.4934 11.274 31.2871C11.0376 31.2679 10.7975 31.2574 10.5455 31.2422C10.2439 31.224 9.9319 31.195 9.64807 31.1143C9.36087 31.0325 9.08838 30.8938 8.87854 30.6484C8.66843 30.4027 8.54065 30.0733 8.50061 29.6455C8.46436 29.2564 8.4375 28.5014 8.4342 27.7607C8.43094 27.0262 8.45049 26.2732 8.51233 25.8994C8.57166 25.54 8.74187 25.2712 8.98206 25.0781C9.21615 24.89 9.50584 24.7831 9.79553 24.7178C10.0862 24.6523 10.395 24.6245 10.6793 24.6084C10.9008 24.5959 11.0973 24.5866 11.275 24.5762C11.6066 23.3683 12.0669 22.1802 12.736 21.1035C12.637 20.9715 12.5176 20.8357 12.3864 20.6895C12.2173 20.5011 12.029 20.2949 11.8698 20.0791C11.5488 19.6443 11.3026 19.1078 11.5573 18.4697C11.6521 18.2315 11.877 17.9577 12.1324 17.6885C12.3957 17.4111 12.7211 17.1086 13.0504 16.8115C13.3838 16.5108 13.7158 16.2196 14.0084 15.9512C14.3018 15.6821 14.5359 15.4538 14.6705 15.2852L14.7115 15.2334L14.7721 15.209C14.9522 15.1355 15.1667 15.1013 15.3707 15.0957C15.5244 15.0915 15.683 15.1027 15.8287 15.1328L15.9694 15.1689V15.1699C16.1304 15.2207 16.3019 15.3483 16.4498 15.4707C16.6053 15.5993 16.7757 15.7572 16.9313 15.8975C17.0923 16.0426 17.2383 16.1695 17.3619 16.2539C17.4228 16.2954 17.4692 16.3196 17.5016 16.332C18.5328 15.6847 19.7111 15.1981 20.902 14.9307C20.9463 14.6599 20.968 14.3906 20.9889 14.1211C21.0132 13.8081 21.0398 13.4862 21.1217 13.1992C21.2056 12.9051 21.3516 12.6314 21.6227 12.4238C21.89 12.2191 22.2533 12.0988 22.735 12.0576L23.1022 12.0352C23.5395 12.0157 24.1654 12.0063 24.776 12.0234ZM23.0192 14.1396C23.0072 14.2351 22.9967 14.3456 22.9889 14.4697C22.976 14.6752 22.9657 14.9317 22.9489 15.1631C22.9316 15.3999 22.9054 15.6434 22.8541 15.8584C22.8041 16.0677 22.7222 16.2849 22.5709 16.4375C22.5078 16.5011 22.4134 16.5504 22.3365 16.5859C22.2497 16.6261 22.1431 16.6676 22.026 16.71C21.7909 16.7949 21.4958 16.8882 21.1949 16.9805C20.5795 17.1692 19.9571 17.3503 19.6881 17.4668L19.6871 17.4658C19.5369 17.5312 19.3557 17.6335 19.149 17.7539C18.9466 17.8718 18.7196 18.0081 18.4977 18.1309C18.2752 18.2539 18.0448 18.3704 17.8258 18.4502C17.6117 18.5282 17.3797 18.582 17.1647 18.5498V18.5488C17.0659 18.534 16.9679 18.4908 16.8834 18.4443C16.7948 18.3956 16.7007 18.3333 16.6071 18.2646C16.4196 18.1272 16.2158 17.9529 16.027 17.7861C15.8293 17.6116 15.666 17.4608 15.5221 17.335C15.4929 17.3094 15.465 17.2878 15.441 17.2676L13.6764 19.0537C13.728 19.139 13.7983 19.235 13.8873 19.3418C14.0283 19.5109 14.1863 19.677 14.3531 19.8652C14.513 20.0456 14.6747 20.2408 14.7926 20.4395C14.9093 20.6362 15.0008 20.8664 14.9762 21.1104C14.9617 21.254 14.889 21.4211 14.8131 21.5713C14.7323 21.7311 14.6281 21.9086 14.5221 22.082C14.3567 22.3525 14.1937 22.6052 14.0826 22.7988L13.9908 22.9707C13.8074 23.36 13.6118 23.8813 13.4655 24.3027V24.3037C13.4247 24.4213 13.3885 24.5765 13.3483 24.7607C13.3092 24.9399 13.2671 25.1449 13.2164 25.3398C13.1659 25.5344 13.1035 25.7336 13.0192 25.9062C12.936 26.0763 12.8189 26.2461 12.6461 26.3506C12.4939 26.4426 12.3001 26.4973 12.1071 26.5332C11.91 26.5698 11.6918 26.591 11.4772 26.6045C11.2622 26.618 11.0436 26.6244 10.8483 26.6309C10.7485 26.6341 10.6554 26.6405 10.5709 26.6445V29.2139C10.6732 29.2155 10.7875 29.22 10.9127 29.2217C11.14 29.2247 11.3951 29.2307 11.6442 29.2539C11.8917 29.277 12.1448 29.3183 12.3668 29.3945C12.5861 29.4698 12.8022 29.5887 12.941 29.7871C13.0242 29.9059 13.0973 30.1001 13.1617 30.2969C13.2295 30.504 13.2994 30.7516 13.3678 31.002C13.5079 31.5148 13.6407 32.026 13.7565 32.3066C13.8719 32.5863 14.1319 33.0249 14.3922 33.4775C14.5192 33.6984 14.6446 33.9204 14.7438 34.1162C14.8393 34.3048 14.924 34.4948 14.9537 34.6455L14.9674 34.7402C14.987 34.9595 14.9251 35.1647 14.8317 35.3467C14.7259 35.5525 14.5706 35.746 14.4147 35.9209C14.336 36.0092 14.2541 36.0957 14.1754 36.1787C14.0958 36.2626 14.0201 36.3426 13.9489 36.4209C13.8069 36.577 13.6999 36.7099 13.6393 36.8262C13.6892 36.9166 13.7912 37.0348 13.9449 37.1807C14.1014 37.3291 14.291 37.4876 14.4918 37.6543C14.6898 37.8186 14.8979 37.9914 15.0797 38.1602C15.21 38.2811 15.3344 38.4076 15.4352 38.5352C15.4727 38.5149 15.5194 38.4866 15.5748 38.4463C15.7262 38.3363 15.9032 38.1801 16.1041 38.0059C16.2991 37.8369 16.5146 37.6538 16.7242 37.5137C16.9251 37.3794 17.1646 37.2529 17.4039 37.2529C17.4885 37.253 17.5766 37.279 17.649 37.3047C17.7274 37.3325 17.815 37.3707 17.9049 37.4141C18.0848 37.5008 18.2945 37.6171 18.5026 37.7363C18.9324 37.9827 19.3416 38.2332 19.5553 38.3301H19.5563C19.9636 38.515 20.4414 38.6452 20.9235 38.7744C21.3936 38.9004 21.878 39.0277 22.2545 39.208C22.5141 39.3322 22.6741 39.5485 22.7731 39.7861C22.8702 40.0196 22.9152 40.2879 22.9401 40.5469C22.9649 40.8054 22.9717 41.0802 22.983 41.3164C22.9905 41.472 23.0004 41.6107 23.0162 41.7305H25.5338C25.5464 41.6303 25.5563 41.5138 25.5641 41.3828C25.5768 41.1677 25.5861 40.909 25.6051 40.668C25.6243 40.4244 25.6549 40.173 25.7164 39.9521C25.7767 39.7357 25.8757 39.5145 26.0553 39.3662L26.1686 39.29C26.2091 39.2671 26.2521 39.2467 26.2946 39.2275C26.3837 39.1873 26.4883 39.1467 26.6012 39.1074C26.8271 39.0289 27.101 38.9481 27.3776 38.8691C27.9446 38.7072 28.5081 38.557 28.7916 38.4355C29.0553 38.3226 29.455 38.0728 29.8717 37.8223C30.0744 37.7004 30.2786 37.5796 30.4606 37.4844C30.6352 37.3929 30.8153 37.3108 30.9635 37.2822L31.0533 37.2705C31.2619 37.2565 31.47 37.3291 31.652 37.4219C31.8654 37.5307 32.0816 37.6877 32.2828 37.8516C32.4851 38.0162 32.6824 38.1956 32.8551 38.3525C32.9534 38.4419 33.0424 38.522 33.1207 38.5898L34.8766 36.8086C34.8302 36.7254 34.7638 36.6296 34.6764 36.5215C34.5404 36.3532 34.3809 36.1827 34.2145 35.9951C34.0536 35.8139 33.8881 35.6187 33.7672 35.4229C33.6488 35.2308 33.5508 35.003 33.5729 34.7627C33.58 34.6857 33.6122 34.5982 33.6412 34.5273C33.6739 34.4478 33.7182 34.3546 33.7682 34.2539C33.8685 34.052 34.0006 33.8058 34.1364 33.5576C34.4141 33.0498 34.6974 32.5456 34.7946 32.3086C35.1105 31.5376 35.3333 30.7568 35.526 29.9355L35.5338 29.9043L35.5494 29.875C35.6722 29.6454 35.891 29.5081 36.1158 29.4229C36.3425 29.337 36.6057 29.2917 36.8619 29.2666C37.1199 29.2413 37.3852 29.2346 37.6198 29.2305C37.7525 29.2281 37.8726 29.2258 37.9781 29.2227V26.6465C37.8845 26.6427 37.7782 26.6376 37.6617 26.6338C37.4415 26.6266 37.1913 26.6176 36.9459 26.5957C36.7018 26.5739 36.4526 26.5384 36.236 26.4775C36.0269 26.4187 35.8086 26.3252 35.6676 26.1592C35.6167 26.0991 35.577 26.019 35.5465 25.9482C35.5134 25.8714 35.4796 25.7794 35.4469 25.6807C35.3815 25.4831 35.3132 25.2401 35.2467 24.9951C35.1103 24.4925 34.9853 23.9948 34.8981 23.7646L34.7848 23.4844C34.6628 23.1975 34.518 22.8944 34.3864 22.624C34.308 22.463 34.1493 22.2393 33.9772 21.9775C33.8954 21.8532 33.8135 21.7231 33.7467 21.5996C33.6819 21.4799 33.6209 21.3482 33.5963 21.2227V21.2217C33.5469 20.9665 33.6126 20.7284 33.7194 20.5205C33.825 20.3147 33.9797 20.1218 34.1354 19.9473C34.214 19.8591 34.296 19.7723 34.3746 19.6895C34.4542 19.6056 34.53 19.5255 34.6012 19.4473C34.7432 19.2913 34.849 19.1579 34.9098 19.041C34.8608 18.9533 34.7562 18.8287 34.5953 18.6709C34.4315 18.5102 34.2308 18.3344 34.0201 18.1514C33.8119 17.9705 33.5933 17.7824 33.4039 17.6045C33.2928 17.5 33.1879 17.3926 33.0963 17.2891C33.0149 17.3557 32.9269 17.4319 32.8336 17.5176C32.6729 17.6651 32.4928 17.8387 32.3102 17.9941C32.1265 18.1505 31.926 18.3015 31.7155 18.4092C31.5043 18.5172 31.2679 18.5886 31.0172 18.5654V18.5645C30.9397 18.5572 30.856 18.5295 30.7838 18.501C30.7059 18.4702 30.6176 18.43 30.525 18.3838C30.3395 18.2913 30.1209 18.1691 29.902 18.0449C29.4517 17.7896 29.0147 17.5325 28.7897 17.4365C28.4081 17.274 27.9751 17.1613 27.5358 17.0488C27.2135 16.9663 26.8835 16.8829 26.5856 16.7783L26.3004 16.666C26.0382 16.5497 25.8789 16.3319 25.7809 16.0947C25.6843 15.8608 25.6387 15.5887 25.6129 15.3262C25.5872 15.0635 25.5788 14.7853 25.567 14.5469C25.5594 14.3925 25.5496 14.256 25.5348 14.1396H23.0192Z" fill="#606C38" stroke="#606C38" stroke-width="0.5"/>
<path d="M4.51282 38.1602C4.92327 38.1996 5.84454 38.4284 6.73938 38.6758C7.64153 38.9252 8.55535 39.2044 8.96497 39.3564C9.23153 39.4554 9.50099 39.5782 9.672 39.7969C9.85751 40.0343 9.89182 40.3334 9.81262 40.6953C9.77015 40.8893 9.67766 41.0477 9.53625 41.1621C9.39832 41.2736 9.23239 41.3284 9.06555 41.3506C8.74001 41.3938 8.34925 41.3225 7.98059 41.2275C7.6105 41.1322 7.21127 40.9984 6.88586 40.9023C6.8118 40.8805 6.74103 40.8597 6.67395 40.8418C12.7016 49.0238 23.7689 51.9768 33.1652 47.8721C35.6354 46.793 37.82 45.2163 39.8195 43.3975L39.8497 43.3701L39.8859 43.3535C40.2712 43.1808 40.6735 43.2297 40.9611 43.458C41.2494 43.6871 41.3893 44.0705 41.3068 44.4971C41.284 44.6143 41.2083 44.7305 41.1388 44.8223C41.0619 44.9239 40.9603 45.0364 40.8458 45.1543C40.6161 45.3909 40.3163 45.6642 40.0079 45.9307C39.3913 46.4635 38.7225 46.9854 38.4698 47.1689V47.1699C30.7188 52.7967 20.2916 53.2821 12.0519 48.3838C9.23475 46.7091 6.61108 44.3253 4.76379 41.5908C4.71972 41.7394 4.66891 41.9447 4.6134 42.1924C4.54605 42.4929 4.46929 42.8421 4.3761 43.1748C4.28354 43.5053 4.17055 43.8362 4.02649 44.0967C3.8891 44.345 3.68594 44.5972 3.38293 44.6484C3.14208 44.689 2.9268 44.6782 2.74329 44.6045C2.55499 44.5288 2.42119 44.3956 2.33508 44.2344C2.17258 43.9299 2.18036 43.5285 2.23352 43.1787C2.30096 42.7358 2.50708 41.8648 2.73352 41.0137C2.9597 40.1636 3.21371 39.3057 3.38 38.8926C3.47356 38.6601 3.60297 38.4552 3.79993 38.3193C4.00135 38.1804 4.24185 38.1345 4.51282 38.1602Z" fill="#606C38" stroke="#606C38" stroke-width="0.5"/>
<path d="M20.4053 0.475586C20.7235 0.219334 21.1966 0.160656 21.627 0.40918L21.6543 0.424805L21.6768 0.447266L25.0469 3.74609L25.0557 3.75488L25.0635 3.76465C25.205 3.9328 25.314 4.15625 25.3457 4.39062C25.3778 4.62876 25.3307 4.89446 25.1367 5.10742L25.1299 5.11621L24.9521 4.93945L25.1289 5.11621L21.6182 8.64355L21.5889 8.67285L21.5518 8.69141C21.1762 8.87647 20.7668 8.80002 20.4756 8.59082C20.1845 8.38172 19.9838 8.01878 20.0586 7.6084L20.0596 7.60742C20.0807 7.49305 20.1385 7.38375 20.2012 7.28906C20.2662 7.19082 20.3495 7.08824 20.4414 6.98633C20.625 6.78273 20.8606 6.56044 21.0947 6.34375C21.3325 6.12365 21.5691 5.90916 21.7676 5.71289C21.7794 5.70122 21.7894 5.68814 21.8008 5.67676C14.7658 6.48407 8.44305 10.7411 5.03223 16.9521C2.30892 21.9113 1.66446 27.6039 2.90527 33.1328L2.91797 33.1875L2.90527 33.2432C2.78406 33.7747 2.3973 34.0864 1.95703 34.0947C1.52486 34.1028 1.11284 33.817 0.927734 33.3164V33.3154C0.586716 32.3907 0.396698 30.9354 0.30957 29.4922C0.222032 28.042 0.236776 26.5716 0.318359 25.6006C1.29011 14.0319 10.5535 4.70992 22.0137 3.57812C21.8372 3.39759 21.5998 3.16839 21.3506 2.92969C21.088 2.67819 20.8138 2.41551 20.5967 2.19629C20.4883 2.08685 20.3908 1.98561 20.3154 1.89941C20.2652 1.84197 20.211 1.77578 20.1719 1.71191L20.1387 1.64941C19.9374 1.18494 20.0828 0.73534 20.4053 0.475586Z" fill="#606C38" stroke="#606C38" stroke-width="0.5"/>
<path d="M33.5826 5.35645C33.7706 5.3922 34.0126 5.4847 34.2653 5.59668C34.5226 5.71074 34.8092 5.85348 35.0924 6.00293C35.6594 6.30214 36.2245 6.63216 36.5377 6.81641C47.0994 13.0367 51.3327 26.4501 46.2164 37.6416C46.4398 37.5784 46.7197 37.4952 47.0133 37.4053C47.3356 37.3066 47.6746 37.2032 47.9635 37.125C48.1078 37.0859 48.2429 37.0524 48.359 37.0283C48.4704 37.0053 48.5803 36.9872 48.6686 36.9873C49.2771 36.988 49.6618 37.3582 49.7369 37.8145C49.8094 38.2545 49.5847 38.7382 49.0885 38.9541L49.0895 38.9551C48.7856 39.0874 47.7763 39.3867 46.7926 39.6553C46.2954 39.791 45.7961 39.9211 45.3834 40.0215C45.0796 40.0954 44.8123 40.1553 44.6266 40.1885L44.4694 40.2119C44.1722 40.2438 43.9174 40.1899 43.7106 40.0371C43.5107 39.8893 43.3858 39.6715 43.2975 39.4375C43.1256 38.9808 42.8577 38.1006 42.6178 37.2266C42.3787 36.3552 42.1609 35.4647 42.0963 34.9922C42.0344 34.5374 42.1797 34.1198 42.4899 33.8809C42.8091 33.6353 43.2459 33.6217 43.6608 33.8691C43.7616 33.9292 43.8376 34.0245 43.8932 34.1133C43.9515 34.2064 44.003 34.3179 44.0504 34.4355C44.1454 34.671 44.2315 34.9607 44.3073 35.251C44.3833 35.5425 44.4518 35.8434 44.5104 36.1025C44.5363 36.2173 44.56 36.3223 44.5817 36.415C44.5875 36.3999 44.5951 36.385 44.6012 36.3691C44.7007 36.1098 44.8243 35.7684 44.9479 35.418C45.196 34.7143 45.4387 33.9877 45.4889 33.8115C48.3435 23.8016 43.9877 13.3582 35.0289 8.30176C34.747 8.14277 34.2734 7.94215 33.7916 7.72656C33.5556 7.62093 33.3202 7.51309 33.1168 7.4082C32.9177 7.30551 32.732 7.19745 32.6051 7.08984C32.1836 6.73238 32.1087 6.23212 32.3365 5.84375C32.5589 5.46494 33.0331 5.25173 33.5826 5.35645Z" fill="#606C38" stroke="#606C38" stroke-width="0.5"/>
<path d="M23.3917 19.0361C30.3894 18.3607 35.459 25.785 32.1749 32.0664C29.2053 37.744 21.4513 38.4976 17.3732 33.5625C12.8842 28.1281 16.4246 19.7088 23.3917 19.0361ZM29.3341 32.6045C33.7007 27.7871 29.7359 20.328 23.2335 21.1113L23.1993 21.1152C19.8124 21.544 17.203 24.9304 17.4064 28.3281C17.7668 34.3581 25.3015 37.0521 29.3341 32.6045Z" fill="#606C38" stroke="#606C38" stroke-width="0.5"/>
</svg>
